<?xml version="1.0" encoding="utf-8"?>
<!-- Generator: Adobe Illustrator 24.1.0, SVG Export Plug-In . SVG Version: 6.00 Build 0)  -->
<svg version="1.1" id="Layer_1" xmlns="http://www.w3.org/2000/svg" xmlns:xlink="http://www.w3.org/1999/xlink" x="0px" y="0px"
	 viewBox="0 0 67.1 50.3" style="enable-background:new 0 0 67.1 50.3;" xml:space="preserve">
<style type="text/css">
	.st0{fill:url(#SVGID_1_);}
	.st1{fill:#FFFFFF;}
	.st2{fill:url(#SVGID_2_);}
	.st3{fill:#8A8581;stroke:#8A8581;stroke-miterlimit:10;}
	.st4{fill:#8A8581;}
	.st5{fill:none;}
	.st6{fill:#8A8582;}
	.st7{fill:#898481;}
	.st8{fill:#222054;}
	.st9{fill:#C7D0D9;}
	.st10{fill:#3FA648;}
	.st11{fill:#ED2838;}
	.st12{fill:#8B8581;}
	.st13{fill:#3D6A3B;}
	.st14{fill:#94B03C;}
</style>
<g>
	<path class="st4" d="M40.7,32.4C40.7,32.4,40.7,32.4,40.7,32.4C40.4,32.2,40.6,32.3,40.7,32.4z"/>
	<path class="st4" d="M39.2,31.2C39.2,31.3,39.4,31.4,39.2,31.2C39.2,31.2,39.2,31.2,39.2,31.2z"/>
	<path class="st4" d="M21.3,27.9h7c-1.1-2.9-2.3-5.8-3.4-8.7C23.7,22.1,22.5,25,21.3,27.9z"/>
	<path class="st4" d="M57.6,2.2H9.5c-4.3,0-7.7,3.5-7.7,7.7v30.5c0,4.3,3.5,7.7,7.7,7.7h48.1c4.3,0,7.7-3.5,7.7-7.7V9.9
		C65.4,5.6,61.9,2.2,57.6,2.2z M33.6,36.3c-1.1,0.3-2.1-0.4-2.5-1.4c-0.3-0.9-0.7-1.7-1-2.6c-0.1-0.1-0.1-0.3-0.2-0.4H19.7
		c-0.4,1-0.8,2-1.2,3c-0.4,1-1.3,1.7-2.5,1.4c-1-0.3-1.8-1.5-1.4-2.5c0.5-1.2,1-2.5,1.5-3.7c2.3-5.6,4.6-11.2,7-16.8
		c0.8-1.9,3.1-1.9,3.9,0c0.3,0.9,0.7,1.7,1,2.6c2.3,6,4.7,11.9,7,17.9C35.4,34.9,34.5,36,33.6,36.3z M51.1,16.7c0,5.9,0,11.9,0,17.8
		c0,2.3-3.1,2.5-3.8,0.8c-0.8,0.5-1.7,0.9-2.7,1.1c-3.2,0.6-6.5-0.8-8.2-3.6c-1.7-2.8-1.3-6.4,0.8-8.9c2-2.4,5.5-3.3,8.4-2.2
		c0.5,0.2,1,0.5,1.5,0.8c0-2.9,0-5.9,0-8.8c0-2.6,4-2.6,4,0C51.1,14.7,51.1,15.7,51.1,16.7z"/>
	<path class="st4" d="M46.4,28.4c-0.1-0.3-0.2-0.6-0.2-0.9c0,0,0,0,0,0c0,0,0,0,0,0C46,27.3,46,27.1,45.9,27s-0.2-0.2-0.2-0.4
		c0,0,0,0,0,0c0,0,0,0,0,0c-0.2-0.2-0.4-0.4-0.5-0.5c0,0-0.1,0-0.1-0.1c0,0-0.1-0.1-0.1-0.1c-0.1-0.1-0.2-0.1-0.3-0.2
		c-0.1-0.1-0.3-0.1-0.5-0.2c0,0,0,0,0,0c0,0,0,0,0,0c-0.3-0.1-0.6-0.2-0.9-0.2c0,0,0,0,0,0c0,0,0,0,0,0c-0.1,0-0.3,0-0.4,0
		c-0.1,0-0.3,0-0.4,0c0,0-0.2,0-0.2,0c-0.1,0-0.1,0-0.2,0c-0.1,0-0.2,0-0.3,0.1c-0.1,0-0.3,0.1-0.4,0.1c-0.3,0.1-0.5,0.3-0.7,0.4
		c0,0-0.2,0.2-0.2,0.2c0,0-0.1,0.1-0.1,0.1c-0.1,0.1-0.3,0.3-0.4,0.4c0.1-0.1-0.2,0.3-0.3,0.4c-0.1,0.1-0.1,0.3-0.2,0.4c0,0,0,0,0,0
		c0,0,0,0,0,0c-0.1,0.2-0.2,0.5-0.2,0.7c0,0.1,0,0.2-0.1,0.3c0.1-0.5,0,0,0,0.1c0,0.2,0,0.5,0,0.7c0,0.1,0,0.1,0,0.1c0,0,0,0,0,0.1
		c0,0.1,0,0.2,0.1,0.3c0,0.2,0.1,0.4,0.2,0.6c0,0,0.2,0.4,0.3,0.5c0.1,0.1,0.1,0.2,0.2,0.3c0.2,0.2,0.4,0.4,0.6,0.6c0,0,0,0,0,0
		c0.1,0.1,0.2,0.1,0.3,0.2c0.2,0.1,0.4,0.2,0.6,0.3c0.1,0,0.3,0.1,0.4,0.1c0.1,0,0.3,0.1,0.4,0.1c0,0,0,0,0,0c0.3,0,0.5,0,0.8,0
		c0.1,0,0.1,0,0.2,0c0.1,0,0.1,0,0.2,0c0.3-0.1,0.5-0.1,0.7-0.2c0,0,0.1,0,0.1,0c0,0,0,0,0.1,0c0.1,0,0.2-0.1,0.3-0.1
		c0.2-0.1,0.3-0.2,0.5-0.3c0,0,0.3-0.3,0.4-0.4c0.1-0.1,0.2-0.2,0.3-0.3c0,0,0,0,0,0c0,0,0,0,0,0c0.2-0.3,0.3-0.5,0.5-0.8
		c0,0,0,0,0,0c0-0.1,0.1-0.2,0.1-0.3c0.1-0.2,0.1-0.5,0.2-0.7c0-0.2,0-0.3,0-0.5C46.4,28.7,46.4,28.6,46.4,28.4
		C46.4,28.4,46.4,28.4,46.4,28.4z M45.8,28.4C45.8,28.5,45.8,28.7,45.8,28.4L45.8,28.4z"/>
</g>
</svg>
