<?xml version="1.0" encoding="utf-8"?>
<!-- Generator: Adobe Illustrator 24.1.0, SVG Export Plug-In . SVG Version: 6.00 Build 0)  -->
<svg version="1.1" id="Layer_1" xmlns="http://www.w3.org/2000/svg" xmlns:xlink="http://www.w3.org/1999/xlink" x="0px" y="0px"
	 viewBox="0 0 67.8 51.1" style="enable-background:new 0 0 67.8 51.1;" xml:space="preserve">
<style type="text/css">
	.st0{fill:url(#SVGID_1_);}
	.st1{fill:#FFFFFF;}
	.st2{fill:url(#SVGID_2_);}
	.st3{fill:#8A8581;stroke:#8A8581;stroke-miterlimit:10;}
	.st4{fill:#8A8581;}
	.st5{fill:none;}
	.st6{fill:#8A8582;}
	.st7{fill:#898481;}
	.st8{fill:#222054;}
	.st9{fill:#C7D0D9;}
	.st10{fill:#3FA648;}
	.st11{fill:#ED2838;}
	.st12{fill:#8B8581;}
	.st13{fill:#3D6A3B;}
	.st14{fill:#94B03C;}
</style>
<path class="st3" d="M57.5,2.5H10.3c-4.2,0-7.6,3.4-7.6,7.6V41c0,4.2,3.4,7.6,7.6,7.6h47.2c4.2,0,7.6-3.4,7.6-7.6V10.1
	C65.1,5.9,61.7,2.5,57.5,2.5z M22,39.3H11.8c-0.6,0-1.1-0.5-1.1-1.1v-3.5c0-0.6,0.5-1,1-1H22V39.3z M37.5,38.2
	c0,0.6-0.5,1.1-1.1,1.1H26.2v-5.7h10.3c0.6,0,1,0.5,1,1V38.2z M57.4,21.4c0,2-1.6,3.7-3.7,3.7H14.1c-2,0-3.7-1.6-3.7-3.7v-7.7
	c0-2,1.6-3.7,3.7-3.7h39.6c2,0,3.7,1.6,3.7,3.7V21.4z"/>
</svg>
