<?xml version="1.0" encoding="utf-8"?>
<!-- Generator: Adobe Illustrator 24.1.0, SVG Export Plug-In . SVG Version: 6.00 Build 0)  -->
<svg version="1.1" id="Layer_1" xmlns="http://www.w3.org/2000/svg" xmlns:xlink="http://www.w3.org/1999/xlink" x="0px" y="0px"
	 viewBox="0 0 494 503" style="enable-background:new 0 0 494 503;" xml:space="preserve">
<style type="text/css">
	.st0{fill:url(#SVGID_1_);}
	.st1{fill:#FFFFFF;}
	.st2{fill:url(#SVGID_2_);}
	.st3{fill:#8A8581;stroke:#8A8581;stroke-miterlimit:10;}
	.st4{fill:#8A8581;}
	.st5{fill:none;}
	.st6{fill:#8A8582;}
	.st7{fill:#898481;}
	.st8{fill:#222054;}
	.st9{font-family:'MyriadPro-Regular';}
	.st10{font-size:48px;}
	.st11{fill:#C7D0D9;}
	.st12{fill:#3FA648;}
	.st13{fill:#ED2838;}
	.st14{fill:#8B8581;}
	.st15{fill:#3D6A3B;}
	.st16{fill:#94B03C;}
</style>
<g>
	<circle class="st8" cx="50.8" cy="48.7" r="29.1"/>
	<text transform="matrix(1 0 0 1 106.4839 62.8348)" class="st9 st10">rgba(51,51,102)</text>
</g>
<g>
	<circle class="st11" cx="50.8" cy="117" r="29.1"/>
	<text transform="matrix(1 0 0 1 106.4839 131.1211)" class="st9 st10">rgba(204,204,204)</text>
</g>
<g>
	<circle class="st12" cx="50.8" cy="184.8" r="29.1"/>
	<text transform="matrix(1 0 0 1 106.4839 198.8447)" class="st9 st10">rgba(51,153,51)</text>
</g>
<g>
	<circle class="st13" cx="50.8" cy="254" r="29.1"/>
	<text transform="matrix(1 0 0 1 106.4839 268.0685)" class="st9 st10">rgba(255,51,51)</text>
</g>
<g>
	<circle class="st14" cx="50.8" cy="324.2" r="29.1"/>
	<text transform="matrix(1 0 0 1 106.4839 338.2921)" class="st9 st10">rgba(153,153,153)</text>
</g>
<g>
	<circle class="st15" cx="50.8" cy="392.4" r="29.1"/>
	<text transform="matrix(1 0 0 1 106.4839 406.5157)" class="st9 st10">rgba(51,102,51)</text>
</g>
<g>
	<circle class="st16" cx="50.8" cy="461.7" r="29.1"/>
	<text transform="matrix(1 0 0 1 106.4839 475.7394)" class="st9 st10">rgba(153,153,51)</text>
</g>
</svg>
