<?xml version="1.0" encoding="utf-8"?>
<!-- Generator: Adobe Illustrator 24.1.0, SVG Export Plug-In . SVG Version: 6.00 Build 0)  -->
<svg version="1.1" id="Layer_1" xmlns="http://www.w3.org/2000/svg" xmlns:xlink="http://www.w3.org/1999/xlink" x="0px" y="0px"
	 viewBox="0 0 69.9 55.2" style="enable-background:new 0 0 69.9 55.2;" xml:space="preserve">
<style type="text/css">
	.st0{fill:url(#SVGID_1_);}
	.st1{fill:#FFFFFF;}
	.st2{fill:url(#SVGID_2_);}
	.st3{fill:#8A8581;stroke:#8A8581;stroke-miterlimit:10;}
	.st4{fill:#8A8581;}
	.st5{fill:none;}
	.st6{fill:#8A8582;}
	.st7{fill:#898481;}
	.st8{fill:#222054;}
	.st9{fill:#C7D0D9;}
	.st10{fill:#3FA648;}
	.st11{fill:#ED2838;}
	.st12{fill:#8B8581;}
	.st13{fill:#3D6A3B;}
	.st14{fill:#94B03C;}
</style>
<g>
	<path class="st3" d="M40.1,33.8L40.1,33.8l26.4-20.1V7.6c0-2-1.6-3.6-3.6-3.6H7C5,4,3.4,5.6,3.4,7.6V14L31,34.2
		C31.4,34.5,35.3,37.9,40.1,33.8z"/>
	<path class="st3" d="M35.3,39.8c-3.1,0-5.6-1.4-7-2.7L3.4,18.9v28.7c0,2,1.6,3.6,3.6,3.6h55.9c2,0,3.6-1.6,3.6-3.6V18.7L42.6,36.9
		C40.1,39.1,37.6,39.8,35.3,39.8z"/>
</g>
</svg>
