<?xml version="1.0" encoding="utf-8"?>
<!-- Generator: Adobe Illustrator 24.1.0, SVG Export Plug-In . SVG Version: 6.00 Build 0)  -->
<svg version="1.1" id="Layer_1" xmlns="http://www.w3.org/2000/svg" xmlns:xlink="http://www.w3.org/1999/xlink" x="0px" y="0px"
	 viewBox="0 0 236.6 240.9" style="enable-background:new 0 0 236.6 240.9;" xml:space="preserve">
<style type="text/css">
	.st0{fill:url(#SVGID_1_);}
	.st1{fill:#FFFFFF;}
	.st2{fill:url(#SVGID_2_);}
	.st3{fill:#8A8581;stroke:#8A8581;stroke-miterlimit:10;}
	.st4{fill:#8A8581;}
	.st5{fill:none;}
	.st6{fill:#8A8582;}
	.st7{fill:#898481;}
	.st8{fill:#222054;}
	.st9{fill:#C7D0D9;}
	.st10{fill:#3FA648;}
	.st11{fill:#ED2838;}
	.st12{fill:#8B8581;}
	.st13{fill:#3D6A3B;}
	.st14{fill:#94B03C;}
</style>
<g>
	<linearGradient id="SVGID_1_" gradientUnits="userSpaceOnUse" x1="118.3123" y1="5.4516" x2="118.3123" y2="235.4839">
		<stop  offset="0" style="stop-color:#94B03C"/>
		<stop  offset="1" style="stop-color:#3D6A3B"/>
	</linearGradient>
	<circle class="st0" cx="118.3" cy="120.5" r="115"/>
	<g>
		<g>
			<g>
				<path class="st1" d="M123.8,206.9c0-24.9,0-49.7,0-74.6c0-21,3.4-45.8-8.8-64.4c-13.3-20.3-38-24.2-60.6-21.3
					c-2.8,0.4-6.2,1.9-6.7,5.1c-3.9,23.4,6.1,49,28.2,59.5c12.4,5.9,26.3,7.3,39.9,6.7c9-0.4,9-14.4,0-14
					c-16.9,0.7-36.2-1.7-47-15.8c-5.8-7.6-8-17.5-7.9-27.2c0-1.7,0.1-3.4,0.2-5.1c0-0.5,0.1-1,0.2-1.5c0,0.3-0.3,2.2-0.1,1.2
					c-2.2,1.7-4.5,3.4-6.7,5.1c10.8-1.4,22.1-1.8,32.5,2c6.3,2.3,12,6.7,15.2,11.2c3.8,5.4,5.3,9.2,6.7,15.7
					c0.3,1.2,0.5,2.4,0.7,3.6c0.2,1.3-0.1-1.2,0.1,0.4c0.1,0.6,0.1,1.3,0.2,1.9c0.1,1.7,0.2,3.5,0.2,5.2
					c-0.1,20.9-0.1,41.8-0.1,62.6c0,14.6,0,29.1,0,43.7C109.8,215.9,123.8,215.9,123.8,206.9L123.8,206.9z"/>
			</g>
		</g>
		<g>
			<g>
				<path class="st1" d="M124.5,150.7c0-0.6,0.1-1.2,0.2-1.7c-0.2,2.2-0.1,0.7,0.1-0.3c0.1-0.9,0.3-1.8,0.5-2.7
					c0.9-5,2.3-9.9,4.1-14.6c3.9-10.4,11.4-21.6,22.9-25.2c9.6-3,19.5-1,28.9,2.1c-1.6-1.6-3.3-3.3-4.9-4.9c0,0.2,0.1,1.3,0.2,1.4
					c-0.5-0.3-0.2-2.1,0,0c0.1,0.8,0.1,1.6,0.2,2.4c0.1,1.9,0.1,3.8,0,5.7c-0.1,1.1-0.2,2.2-0.3,3.3c-0.1,1.4,0.2-1.1,0,0.3
					c-0.1,0.7-0.2,1.5-0.4,2.2c-2.3,11.3-8.5,19.9-20.3,24.6c-11.3,4.5-23.8,4.5-35.7,3.6c-9-0.7-8.9,13.3,0,14
					c20.3,1.6,44.4-0.6,58.8-16.9c8.4-9.6,12.2-22.2,12-34.8c0-3-0.1-6.5-0.9-9.3c-1.6-5.3-8.3-6.3-13-7.4c-5.4-1.2-11-2-16.5-1.7
					C142.3,91.5,128,102.4,120,118c-5.2,10-8.5,21.4-9.5,32.7C109.7,159.6,123.7,159.6,124.5,150.7L124.5,150.7z"/>
			</g>
		</g>
	</g>
</g>
</svg>
