<?xml version="1.0" encoding="utf-8"?>
<!-- Generator: Adobe Illustrator 24.1.0, SVG Export Plug-In . SVG Version: 6.00 Build 0)  -->
<svg version="1.1" id="Layer_1" xmlns="http://www.w3.org/2000/svg" xmlns:xlink="http://www.w3.org/1999/xlink" x="0px" y="0px"
	 viewBox="0 0 36.5 37.2" style="enable-background:new 0 0 36.5 37.2;" xml:space="preserve">
<style type="text/css">
	.st0{fill:url(#SVGID_1_);}
	.st1{fill:#FFFFFF;}
	.st2{fill:url(#SVGID_2_);}
	.st3{fill:#8A8581;stroke:#8A8581;stroke-miterlimit:10;}
	.st4{fill:#8A8581;}
	.st5{fill:none;}
	.st6{fill:#8A8582;}
	.st7{fill:#898481;}
	.st8{fill:#222054;}
	.st9{fill:#C7D0D9;}
	.st10{fill:#3FA648;}
	.st11{fill:#ED2838;}
	.st12{fill:#8B8581;}
	.st13{fill:#3D6A3B;}
	.st14{fill:#94B03C;}
</style>
<path class="st6" d="M32.4,12.6c-0.3-1-1.7-1.3-2.6-1.5c-1.1-0.2-2.2-0.4-3.3-0.3c-3,0.1-5.5,1.7-7.2,4.1c0-3-0.2-6.1-1.8-8.6
	C14.9,2.2,9.9,1.4,5.4,2C4.8,2.1,4.2,2.4,4.1,3c-0.8,4.7,1.2,9.8,5.6,11.9c2.1,1,4.5,1.3,6.8,1.4c0,3,0,6,0,9c0,2.9,0,5.8,0,8.7
	c0,1.8,2.8,1.8,2.8,0c0-3.1,0-6.1,0-9.2c3.9,0.2,8.3-0.4,10.9-3.4c1.7-1.9,2.4-4.4,2.4-6.9C32.6,13.9,32.6,13.2,32.4,12.6z
	 M29.7,13.4c0,0.1,0,0.2,0,0.2c0,0,0,0,0,0C29.7,13.5,29.7,13.4,29.7,13.4z M6.8,3.5C6.8,3.5,6.8,3.6,6.8,3.5
	C6.8,3.6,6.8,3.5,6.8,3.5z M8.3,10.3C7.1,8.8,6.7,6.8,6.7,4.8c0-0.1,0-0.1,0-0.2c1.8-0.1,3.5-0.1,5.2,0.5c1.3,0.5,2.4,1.3,3,2.2
	c0.8,1.1,1.1,1.8,1.3,3.1c0.1,0.2,0.1,0.5,0.1,0.7c0,0,0,0,0,0c0,0,0,0,0,0c0,0.1,0,0.3,0,0.4c0,0.3,0,0.7,0,1c0,0.2,0,0.5,0,0.7
	C13.4,13.4,10.2,12.8,8.3,10.3z M19.4,22.6C19.4,22.6,19.4,22.6,19.4,22.6c0-0.1,0-0.1,0-0.1C19.4,22.6,19.4,22.7,19.4,22.6z
	 M29.8,15.2c0,0.2,0,0.4-0.1,0.7c0,0,0,0,0,0c0,0,0,0,0,0c0,0.1,0,0.3-0.1,0.4c-0.5,2.3-1.7,4-4.1,4.9c-1.9,0.8-4,0.9-6.1,0.8
	c0-0.1,0-0.2,0-0.2c0.2-1,0.5-2,0.8-2.9c0.8-2.1,2.3-4.3,4.6-5c1.6-0.5,3.3-0.3,4.9,0.1c0,0,0,0,0,0.1
	C29.8,14.5,29.8,14.8,29.8,15.2z"/>
</svg>
