<?xml version="1.0" encoding="utf-8"?>
<!-- Generator: Adobe Illustrator 24.1.0, SVG Export Plug-In . SVG Version: 6.00 Build 0)  -->
<svg version="1.1" id="Layer_1" xmlns="http://www.w3.org/2000/svg" xmlns:xlink="http://www.w3.org/1999/xlink" x="0px" y="0px"
	 viewBox="0 0 233.6 237.8" style="enable-background:new 0 0 233.6 237.8;" xml:space="preserve">
<style type="text/css">
	.st0{fill:url(#SVGID_1_);}
	.st1{fill:#FFFFFF;}
	.st2{fill:url(#SVGID_2_);}
	.st3{fill:#8A8581;stroke:#8A8581;stroke-miterlimit:10;}
	.st4{fill:#8A8581;}
	.st5{fill:none;}
	.st6{fill:#8A8582;}
	.st7{fill:#898481;}
	.st8{fill:#222054;}
	.st9{fill:#C7D0D9;}
	.st10{fill:#3FA648;}
	.st11{fill:#ED2838;}
	.st12{fill:#8B8581;}
	.st13{fill:#3D6A3B;}
	.st14{fill:#94B03C;}
</style>
<g>
	<circle class="st1" cx="116.8" cy="118.9" r="115"/>
	<linearGradient id="SVGID_1_" gradientUnits="userSpaceOnUse" x1="44.7808" y1="49.7704" x2="162.5792" y2="167.5688">
		<stop  offset="0" style="stop-color:#94B03C"/>
		<stop  offset="1" style="stop-color:#3D6A3B"/>
	</linearGradient>
	<path class="st0" d="M187.6,98.3c-1.6-5.3-8.3-6.3-13-7.4c-5.4-1.2-11-2-16.5-1.7c-15.1,0.7-27.6,8.5-36,20.3
		c0.1-15.1-1-30.5-9.3-43c-13.3-20.3-38-24.2-60.6-21.3c-2.8,0.4-6.2,1.9-6.7,5.1c-3.9,23.4,6.1,49,28.2,59.5
		c10.6,5,22.3,6.8,34,6.8c0,15.1-0.1,30.1-0.1,45.2c0,14.6,0,29.1,0,43.7c0,9,14,9,14,0c0-15.3,0-30.6,0-45.9
		c19.4,1,41.4-1.9,54.8-17.1c8.4-9.6,12.2-22.2,12-34.8C188.5,104.7,188.5,101.1,187.6,98.3z M174.2,102.3c0,0.3,0.1,0.8,0.1,0.9
		c0,0,0,0,0,0C174,103,174,102,174.2,102.3z M59.3,52.8c0,0,0,0.1,0,0.1C59.2,52.9,59.3,52.9,59.3,52.8z M66.7,86.6
		c-5.8-7.6-8-17.5-7.9-27.2c0-0.3,0-0.6,0-0.9c8.8-0.7,17.7-0.4,26,2.7c6.3,2.3,12,6.7,15.2,11.2c3.8,5.4,5.3,9.2,6.7,15.7
		c0.3,1.2,0.5,2.4,0.7,3.6c0,0.1,0,0.2,0,0.2c0,0.1,0,0.1,0,0.2c0.1,0.6,0.1,1.3,0.2,1.9c0.1,1.7,0.2,3.5,0.2,5.2c0,1.1,0,2.3,0,3.4
		C92.6,102.4,76.3,99.1,66.7,86.6z M122.5,148.6c0-0.1,0-0.3,0-0.4c0-0.1,0-0.1,0-0.2C122.5,148.4,122.5,148.6,122.5,148.6z
		 M174.5,111.3c-0.1,1.1-0.2,2.2-0.3,3.3c0,0.1,0,0.1,0,0.2c0,0,0,0.1,0,0.1c-0.1,0.7-0.2,1.5-0.4,2.2c-2.3,11.3-8.5,19.9-20.3,24.6
		c-9.6,3.8-20.2,4.4-30.5,3.9c0.1-0.4,0.1-0.8,0.2-1.2c0.9-5,2.3-9.9,4.1-14.6c3.9-10.4,11.4-21.6,22.9-25.2
		c8-2.5,16.3-1.5,24.3,0.7c0,0.1,0,0.2,0,0.3C174.6,107.5,174.6,109.4,174.5,111.3z"/>
</g>
</svg>
