<?xml version="1.0" encoding="utf-8"?>
<!-- Generator: Adobe Illustrator 24.1.0, SVG Export Plug-In . SVG Version: 6.00 Build 0)  -->
<svg version="1.1" id="Layer_1" xmlns="http://www.w3.org/2000/svg" xmlns:xlink="http://www.w3.org/1999/xlink" x="0px" y="0px"
	 viewBox="0 0 67.2 50.5" style="enable-background:new 0 0 67.2 50.5;" xml:space="preserve">
<style type="text/css">
	.st0{fill:url(#SVGID_1_);}
	.st1{fill:#FFFFFF;}
	.st2{fill:url(#SVGID_2_);}
	.st3{fill:#8A8581;stroke:#8A8581;stroke-miterlimit:10;}
	.st4{fill:#8A8581;}
	.st5{fill:none;}
	.st6{fill:#8A8582;}
	.st7{fill:#898481;}
	.st8{fill:#222054;}
	.st9{fill:#C7D0D9;}
	.st10{fill:#3FA648;}
	.st11{fill:#ED2838;}
	.st12{fill:#8B8581;}
	.st13{fill:#3D6A3B;}
	.st14{fill:#94B03C;}
</style>
<path class="st3" d="M58.8,2.5H8.5c-3.4,0-6.1,2.7-6.1,6.1v33.3c0,3.4,2.7,6.1,6.1,6.1h50.3c3.4,0,6.1-2.7,6.1-6.1V8.6
	C64.9,5.2,62.2,2.5,58.8,2.5z M16.1,9c3.7,0,6.8,3,6.8,6.8s-3,6.8-6.8,6.8c-3.7,0-6.8-3-6.8-6.8S12.4,9,16.1,9z M56.6,40H10.7v0.5
	L10.6,40h0.1v-5.4l7.2-7c0,0,2.3-3,4.5,0.1l3.6,4.1c0,0,2.2,2.4,4.4,0l13-13.7c0,0,2.2-2.6,4.2-0.1c2,2.5,9.2,9.5,9.2,9.5V40z"/>
</svg>
