<?xml version="1.0" encoding="utf-8"?>
<!-- Generator: Adobe Illustrator 24.1.0, SVG Export Plug-In . SVG Version: 6.00 Build 0)  -->
<svg version="1.1" id="Layer_1" xmlns="http://www.w3.org/2000/svg" xmlns:xlink="http://www.w3.org/1999/xlink" x="0px" y="0px"
	 viewBox="0 0 43.5 44.3" style="enable-background:new 0 0 43.5 44.3;" xml:space="preserve">
<style type="text/css">
	.st0{fill:url(#SVGID_1_);}
	.st1{fill:#FFFFFF;}
	.st2{fill:url(#SVGID_2_);}
	.st3{fill:#8A8581;stroke:#8A8581;stroke-miterlimit:10;}
	.st4{fill:#8A8581;}
	.st5{fill:none;}
	.st6{fill:#8A8582;}
	.st7{fill:#898481;}
	.st8{fill:#222054;}
	.st9{fill:#C7D0D9;}
	.st10{fill:#3FA648;}
	.st11{fill:#ED2838;}
	.st12{fill:#8B8581;}
	.st13{fill:#3D6A3B;}
	.st14{fill:#94B03C;}
</style>
<g>
	<path class="st6" d="M21.7,41C11.3,41,2.8,32.6,2.8,22.1c0-10.4,8.5-18.9,18.9-18.9s18.9,8.5,18.9,18.9C40.7,32.6,32.2,41,21.7,41z
		 M21.7,5.2c-9.3,0-16.9,7.6-16.9,16.9S12.4,39,21.7,39s16.9-7.6,16.9-16.9S31.1,5.2,21.7,5.2z"/>
	<path class="st6" d="M21.7,36c-7.6,0-13.8-6.2-13.8-13.8S14.1,8.3,21.7,8.3s13.8,6.2,13.8,13.8S29.4,36,21.7,36z M21.7,9.3
		c-7.1,0-12.8,5.7-12.8,12.8S14.7,35,21.7,35s12.8-5.7,12.8-12.8S28.8,9.3,21.7,9.3z"/>
	<circle class="st6" cx="12.9" cy="27.2" r="1.4"/>
	<circle class="st6" cx="30.3" cy="22" r="1.4"/>
	<g>
		<path class="st6" d="M20.6,30.1v-2c-1.4-0.1-2.8-0.4-3.6-0.9l0.6-2.5c0.9,0.5,2.1,0.9,3.5,0.9c1.2,0,2-0.5,2-1.3
			c0-0.8-0.7-1.3-2.2-1.8c-2.2-0.8-3.8-1.8-3.8-3.8c0-1.8,1.3-3.3,3.5-3.7v-2h2.1v1.8c1.4,0.1,2.4,0.4,3,0.7l-0.6,2.4
			c-0.5-0.2-1.5-0.7-3-0.7c-1.4,0-1.8,0.6-1.8,1.2c0,0.7,0.7,1.1,2.5,1.8c2.5,0.9,3.5,2,3.5,3.9c0,1.9-1.3,3.5-3.7,3.9v2.1H20.6z"/>
	</g>
</g>
</svg>
