<?xml version="1.0" encoding="utf-8"?>
<!-- Generator: Adobe Illustrator 24.1.0, SVG Export Plug-In . SVG Version: 6.00 Build 0)  -->
<svg version="1.1" id="Layer_1" xmlns="http://www.w3.org/2000/svg" xmlns:xlink="http://www.w3.org/1999/xlink" x="0px" y="0px"
	 viewBox="0 0 64.3 65.4" style="enable-background:new 0 0 64.3 65.4;" xml:space="preserve">
<style type="text/css">
	.st0{fill:url(#SVGID_1_);}
	.st1{fill:#FFFFFF;}
	.st2{fill:url(#SVGID_2_);}
	.st3{fill:#8A8581;stroke:#8A8581;stroke-miterlimit:10;}
	.st4{fill:#8A8581;}
	.st5{fill:none;}
	.st6{fill:#8A8582;}
	.st7{fill:#898481;}
	.st8{fill:#222054;}
	.st9{fill:#C7D0D9;}
	.st10{fill:#3FA648;}
	.st11{fill:#ED2838;}
	.st12{fill:#8B8581;}
	.st13{fill:#3D6A3B;}
	.st14{fill:#94B03C;}
</style>
<g>
	<g>
		<path class="st4" d="M61.4,7.4c0-1.5-1.9-2.3-3-1.2l-6.6,6.3c0.1,0.1,0.1,0.1,0.2,0.2L46,18c0,0,0,0-0.1-0.1l-6,5.7
			c-1.1,1.1-0.5,2.9,1.1,3.1L60,28.2c1.1,0.1,1.9-0.8,1.9-1.8L61.4,7.4z"/>
		<path class="st4" d="M51.9,12.6c-0.1-0.1-0.1-0.1-0.2-0.2c-5.2-5.7-12.7-8.9-20.5-8.9C16.3,3.5,4,15.2,3.7,29.5l8,0.1
			c0.2-10,8.9-18.1,19.5-18.1c5.7,0,11,2.3,14.7,6.4c0,0,0,0,0.1,0.1L51.9,12.6z"/>
	</g>
	<g>
		<path class="st4" d="M2.9,58.1c0,1.5,1.9,2.3,3,1.2l6.6-6.3c-0.1-0.1-0.1-0.1-0.2-0.2l5.9-5.4c0,0,0,0,0.1,0.1l6-5.7
			c1.1-1.1,0.5-2.9-1.1-3.1L4.3,37.2c-1.1-0.1-1.9,0.8-1.9,1.8L2.9,58.1z"/>
		<path class="st4" d="M12.3,52.8c0.1,0.1,0.1,0.1,0.2,0.2c5.2,5.7,12.7,8.9,20.5,8.9c14.9,0,27.2-11.7,27.5-26l-8-0.1
			c-0.2,10-8.9,18.1-19.5,18.1c-5.7,0-11-2.3-14.7-6.4c0,0,0,0-0.1-0.1L12.3,52.8z"/>
	</g>
	<rect id="_x3C_Slice_x3E_" x="6.6" y="28.7" class="st5" width="6" height="5"/>
</g>
</svg>
