<?xml version="1.0" encoding="utf-8"?>
<!-- Generator: Adobe Illustrator 24.1.0, SVG Export Plug-In . SVG Version: 6.00 Build 0)  -->
<svg version="1.1" id="Layer_1" xmlns="http://www.w3.org/2000/svg" xmlns:xlink="http://www.w3.org/1999/xlink" x="0px" y="0px"
	 viewBox="0 0 63.2 64.4" style="enable-background:new 0 0 63.2 64.4;" xml:space="preserve">
<style type="text/css">
	.st0{fill:url(#SVGID_1_);}
	.st1{fill:#FFFFFF;}
	.st2{fill:url(#SVGID_2_);}
	.st3{fill:#8A8581;stroke:#8A8581;stroke-miterlimit:10;}
	.st4{fill:#8A8581;}
	.st5{fill:none;}
	.st6{fill:#8A8582;}
	.st7{fill:#898481;}
	.st8{fill:#222054;}
	.st9{fill:#C7D0D9;}
	.st10{fill:#3FA648;}
	.st11{fill:#ED2838;}
	.st12{fill:#8B8581;}
	.st13{fill:#3D6A3B;}
	.st14{fill:#94B03C;}
</style>
<g>
	<path class="st7" d="M24.5,2.4H4C2.9,2.4,2,3.3,2,4.5v20.5C2,26.1,2.9,27,4,27h20.5c1.1,0,2.1-0.9,2.1-2.1V4.5
		C26.5,3.3,25.6,2.4,24.5,2.4z M17,15l-4.9,2.8c-0.2,0.1-0.6,0-0.6-0.3v-5.6c0-0.3,0.3-0.5,0.6-0.3l4.9,2.8
		C17.2,14.5,17.2,14.9,17,15z"/>
	<path class="st7" d="M24.5,37.4H4c-1.1,0-2.1,0.9-2.1,2.1v20.5C2,61,2.9,62,4,62h20.5c1.1,0,2.1-0.9,2.1-2.1V39.4
		C26.5,38.3,25.6,37.4,24.5,37.4z M17,50l-4.9,2.8c-0.2,0.1-0.6,0-0.6-0.3v-5.6c0-0.3,0.3-0.5,0.6-0.3l4.9,2.8
		C17.2,49.5,17.2,49.9,17,50z"/>
	<path class="st7" d="M59.2,2.4H38.7c-1.1,0-2.1,0.9-2.1,2.1v20.5c0,1.1,0.9,2.1,2.1,2.1h20.5c1.1,0,2.1-0.9,2.1-2.1V4.5
		C61.3,3.3,60.3,2.4,59.2,2.4z M51.7,15l-4.9,2.8c-0.2,0.1-0.6,0-0.6-0.3v-5.6c0-0.3,0.3-0.5,0.6-0.3l4.9,2.8
		C51.9,14.5,51.9,14.9,51.7,15z"/>
	<path class="st7" d="M59.2,37.4H38.7c-1.1,0-2.1,0.9-2.1,2.1v20.5c0,1.1,0.9,2.1,2.1,2.1h20.5c1.1,0,2.1-0.9,2.1-2.1V39.4
		C61.3,38.3,60.3,37.4,59.2,37.4z M51.7,50l-4.9,2.8c-0.2,0.1-0.6,0-0.6-0.3v-5.6c0-0.3,0.3-0.5,0.6-0.3l4.9,2.8
		C51.9,49.5,51.9,49.9,51.7,50z"/>
</g>
</svg>
