<?xml version="1.0" encoding="utf-8"?>
<!-- Generator: Adobe Illustrator 24.1.0, SVG Export Plug-In . SVG Version: 6.00 Build 0)  -->
<svg version="1.1" id="Layer_1" xmlns="http://www.w3.org/2000/svg" xmlns:xlink="http://www.w3.org/1999/xlink" x="0px" y="0px"
	 viewBox="0 0 52.6 53.6" style="enable-background:new 0 0 52.6 53.6;" xml:space="preserve">
<style type="text/css">
	.st0{fill:url(#SVGID_1_);}
	.st1{fill:#FFFFFF;}
	.st2{fill:url(#SVGID_2_);}
	.st3{fill:#8A8581;stroke:#8A8581;stroke-miterlimit:10;}
	.st4{fill:#8A8581;}
	.st5{fill:none;}
	.st6{fill:#8A8582;}
	.st7{fill:#898481;}
	.st8{fill:#222054;}
	.st9{fill:#C7D0D9;}
	.st10{fill:#3FA648;}
	.st11{fill:#ED2838;}
	.st12{fill:#8B8581;}
	.st13{fill:#3D6A3B;}
	.st14{fill:#94B03C;}
</style>
<g>
	<circle class="st6" cx="14.8" cy="6.9" r="1.5"/>
	<circle class="st6" cx="8.7" cy="6.9" r="1.5"/>
	<path class="st6" d="M45.3,2H7.3C5.1,2,3.2,3.8,3.2,6.1v41.4c0,2.3,1.8,4.1,4.1,4.1h37.9c2.3,0,4.1-1.8,4.1-4.1V6.1
		C49.4,3.8,47.6,2,45.3,2z M46.6,48.2c0,0.7-0.6,1.3-1.3,1.3H6.4c-0.5,0-1-0.4-1-1v-5.9h41.1V48.2z M20.4,30.5V21
		c0-1.5,1.6-2.4,2.9-1.7l8.2,4.7c1.3,0.7,1.3,2.6,0,3.4l-8.2,4.7C22,32.9,20.4,32,20.4,30.5z M46.9,9.7H5.7V5.2c0-0.5,0.4-1,1-1
		h38.8c0.7,0,1.3,0.6,1.3,1.3V9.7z"/>
	<circle class="st6" cx="21" cy="6.9" r="1.5"/>
	<path class="st6" d="M7.6,47.2c2.4,0,4.8,0,7.1,0c0,0.1,0,0.2,0,0.2c0,0.1,0,0.3,0,0.4c0,0.5,0.5,1,1,1c0.5,0,1-0.4,1-1
		c0-0.2,0-0.4,0-0.6c7.6,0,15.3,0,22.9,0c1.5,0,3,0,4.6,0c1.3,0,1.3-2,0-2c-9.2,0-18.3,0-27.5,0c0-0.1,0-0.2,0-0.3
		c0-0.1,0-0.3,0-0.4c0-0.5-0.5-1-1-1c-0.5,0-1,0.4-1,1c0,0.2,0,0.5,0,0.7c-0.9,0-1.7,0-2.6,0c-1.5,0-3,0-4.6,0
		C6.3,45.2,6.3,47.2,7.6,47.2z"/>
</g>
</svg>
